<?xml version="1.0" encoding="UTF-8" standalone="no"?>
<!-- Generator: Adobe Illustrator 27.9.6, SVG Export Plug-In . SVG Version: 9.03 Build 54986)  -->

<svg
   version="1.1"
   id="Layer_1"
   x="0px"
   y="0px"
   viewBox="0 0 250.00001 254.99999"
   xml:space="preserve"
   sodipodi:docname="IVT_graph.svg"
   width="6.6145835cm"
   height="6.7468748cm"
   inkscape:version="1.4 (e7c3feb1, 2024-10-09)"
   xmlns:inkscape="http://www.inkscape.org/namespaces/inkscape"
   xmlns:sodipodi="http://sodipodi.sourceforge.net/DTD/sodipodi-0.dtd"
   xmlns="http://www.w3.org/2000/svg"
   xmlns:svg="http://www.w3.org/2000/svg"><defs
   id="defs14" /><sodipodi:namedview
   id="namedview14"
   pagecolor="#ffffff"
   bordercolor="#666666"
   borderopacity="1.0"
   inkscape:showpageshadow="2"
   inkscape:pageopacity="0.0"
   inkscape:pagecheckerboard="0"
   inkscape:deskcolor="#d1d1d1"
   inkscape:zoom="2"
   inkscape:cx="129.75"
   inkscape:cy="120"
   inkscape:window-width="1192"
   inkscape:window-height="773"
   inkscape:window-x="0"
   inkscape:window-y="38"
   inkscape:window-maximized="0"
   inkscape:current-layer="Layer_1"
   inkscape:export-bgcolor="#ffffffff"
   inkscape:document-units="cm" />
<style
   type="text/css"
   id="style1">
	.st0{fill:none;stroke:#000000;stroke-miterlimit:10;}
	.st1{fill:none;stroke:#ED1C24;stroke-miterlimit:10;}
	.st2{fill:#ED1C24;}
	.st3{font-family:'MyriadPro-Regular';}
	.st4{font-size:8.5714px;}
</style>
<g
   id="g4"
   transform="translate(-24.5,-23)">
	<g
   id="g3">
		<line
   class="st0"
   x1="150.03"
   y1="28.190001"
   x2="150.03"
   y2="274.16"
   id="line1" />
		<g
   id="g1">
			<polygon
   points="147.79,34.44 150.03,28.28 152.27,34.44 153.21,34.1 150.03,25.36 146.85,34.1 "
   id="polygon1" />
		</g>
		<g
   id="g2">
			<path
   d="m 145.23,267.32 c 0.23,-0.15 0.54,-0.08 0.69,0.15 l 4.11,6.45 4.11,-6.45 c 0.15,-0.23 0.46,-0.3 0.69,-0.15 0.23,0.15 0.3,0.46 0.15,0.69 l -4.53,7.11 c -0.09,0.14 -0.25,0.23 -0.42,0.23 -0.17,0 -0.33,-0.09 -0.42,-0.23 l -4.53,-7.11 c -0.05,-0.08 -0.08,-0.18 -0.08,-0.27 0,-0.16 0.08,-0.32 0.23,-0.42 z"
   id="path1" />
		</g>
	</g>
</g>
<g
   id="g8"
   transform="translate(-24.5,-23)">
	<g
   id="g7">
		<line
   class="st0"
   x1="272.20999"
   y1="149.67999"
   x2="27.860001"
   y2="149.67999"
   id="line4" />
		<g
   id="g5">
			<polygon
   points="265.95,147.44 272.11,149.68 265.95,151.92 266.3,152.86 275.03,149.68 266.3,146.5 "
   id="polygon4" />
		</g>
		<g
   id="g6">
			<polygon
   points="34.11,147.44 27.96,149.68 34.11,151.92 33.77,152.86 25.03,149.68 33.77,146.5 "
   id="polygon5" />
		</g>
	</g>
</g>
<line
   class="st0"
   x1="36.25"
   y1="132.72"
   x2="36.25"
   y2="122"
   id="line8" />
<line
   class="st0"
   x1="214.82001"
   y1="131.92"
   x2="214.82001"
   y2="121.21001"
   id="line9" />
<g
   id="g13"
   transform="translate(-24.5,-23)">
	<g
   id="g12">
		<path
   class="st1"
   d="m 60.95,230.5 c 1.36,-11.55 4.27,-24.82 11.15,-26.4 7.49,-1.72 13.08,11.28 20.64,9.83 8.23,-1.58 10.61,-18.84 17.72,-51.75 9.53,-44.1 13.96,-53.42 17.66,-53.4 6.09,0.03 7.73,25.39 17.69,26.53 7.8,0.89 12.27,-14.04 19.33,-13.1 11.09,1.47 11.41,38.32 19.65,38.98 6.43,0.51 14.2,-21.36 23.26,-46.84 8.3,-23.35 10.32,-33.64 15.4,-34.07 3.6,-0.3 9.16,4.31 17.43,27.79"
   id="path9" />
		<g
   id="g10">
			<path
   class="st2"
   d="m 62.87,230.68 c -0.14,1.03 -1.1,1.74 -2.12,1.6 -1.02,-0.14 -1.74,-1.1 -1.6,-2.12 0.14,-1.03 1.1,-1.74 2.12,-1.6 1.02,0.14 1.74,1.09 1.6,2.12 z"
   id="path10" />
		</g>
		<g
   id="g11">
			<path
   class="st2"
   d="m 239.04,108.65 c 0.36,0.97 1.44,1.48 2.41,1.12 0.97,-0.36 1.48,-1.44 1.12,-2.41 -0.36,-0.97 -1.44,-1.48 -2.41,-1.12 -0.97,0.36 -1.48,1.43 -1.12,2.41 z"
   id="path11" />
		</g>
	</g>
</g>
<path
   d="m 37.6113,117.22395 q -0.716148,0.60872 -1.382165,0.85938 -0.658856,0.25065 -1.417972,0.25065 -1.253258,0 -1.926437,-0.60873 -0.673178,-0.61589 -0.673178,-1.56836 0,-0.5586 0.250651,-1.01693 0.257814,-0.4655 0.666018,-0.74479 0.415365,-0.2793 0.930991,-0.42253 0.379558,-0.10026 1.145836,-0.19336 1.561202,-0.1862 2.298834,-0.44401 0.0072,-0.26498 0.0072,-0.33659 0,-0.78776 -0.365235,-1.11003 -0.494142,-0.43685 -1.468102,-0.43685 -0.909508,0 -1.346358,0.32227 -0.429688,0.3151 -0.637371,1.12435 l -1.260419,-0.17188 q 0.171875,-0.80924 0.565756,-1.30339 0.393881,-0.5013 1.138675,-0.76627 0.744793,-0.27214 1.725915,-0.27214 0.973961,0 1.582686,0.22917 0.608725,0.22916 0.895184,0.58008 0.286459,0.34375 0.401043,0.8737 0.06445,0.32942 0.06445,1.1888 v 1.71876 q 0,1.79753 0.07878,2.27734 0.08594,0.47266 0.329428,0.90951 h -1.346357 q -0.200521,-0.40104 -0.257813,-0.93815 z m -0.107422,-2.87891 q -0.701825,0.28645 -2.105474,0.48698 -0.794924,0.11458 -1.124351,0.25781 -0.329428,0.14323 -0.508465,0.42253 -0.179037,0.27213 -0.179037,0.60872 0,0.51563 0.38672,0.85938 0.393881,0.34375 1.145836,0.34375 0.744793,0 1.324872,-0.32227 0.58008,-0.32943 0.852216,-0.89518 0.207683,-0.43685 0.207683,-1.28907 z"
   id="text13"
   style="font-size:14.6667px;font-family:Arial;-inkscape-font-specification:Arial"
   class="st3 st4"
   aria-label="a" />
<path
   d="m 213.53651,117.66209 h -1.19597 v -10.49873 h 1.28907 v 3.74546 q 0.81641,-1.0241 2.08399,-1.0241 0.70182,0 1.32487,0.28646 0.63021,0.2793 1.03125,0.79493 0.40821,0.50846 0.63737,1.23177 0.22917,0.72331 0.22917,1.54688 0,1.95508 -0.9668,3.02214 -0.9668,1.06706 -2.32032,1.06706 -1.34635,0 -2.11263,-1.12435 z m -0.0143,-3.86004 q 0,1.36784 0.37239,1.97657 0.60873,0.99544 1.64714,0.99544 0.84506,0 1.46094,-0.73047 0.61589,-0.73763 0.61589,-2.19141 0,-1.48958 -0.5944,-2.19857 -0.58724,-0.70899 -1.42514,-0.70899 -0.84505,0 -1.46094,0.73764 -0.61588,0.73047 -0.61588,2.11979 z"
   id="text14"
   style="font-size:14.6667px;font-family:Arial;-inkscape-font-specification:Arial"
   class="st3 st4"
   aria-label="b" />
</svg>
