<?xml version="1.0" encoding="utf-8"?>
<!-- Generator: Adobe Illustrator 27.9.6, SVG Export Plug-In . SVG Version: 9.03 Build 54986)  -->
<svg version="1.1" id="Layer_1" xmlns="http://www.w3.org/2000/svg" xmlns:xlink="http://www.w3.org/1999/xlink" x="0px" y="0px"
	 viewBox="0 0 300 300" style="enable-background:new 0 0 300 300;" xml:space="preserve">
<style type="text/css">
	.st0{fill:none;stroke:#000000;stroke-miterlimit:10;}
	.st1{fill:none;stroke:#ED1C24;stroke-miterlimit:10;}
	.st2{fill:#ED1C24;}
	.st3{font-family:'MyriadPro-Regular';}
	.st4{font-size:8.5714px;}
</style>
<g>
	<g>
		<line class="st0" x1="150.03" y1="28.19" x2="150.03" y2="274.16"/>
		<g>
			<polygon points="146.85,34.1 147.79,34.44 150.03,28.28 152.27,34.44 153.21,34.1 150.03,25.36 			"/>
		</g>
		<g>
			<path d="M145.23,267.32c0.23-0.15,0.54-0.08,0.69,0.15l4.11,6.45l4.11-6.45c0.15-0.23,0.46-0.3,0.69-0.15
				c0.23,0.15,0.3,0.46,0.15,0.69l-4.53,7.11c-0.09,0.14-0.25,0.23-0.42,0.23s-0.33-0.09-0.42-0.23l-4.53-7.11
				c-0.05-0.08-0.08-0.18-0.08-0.27C145,267.58,145.08,267.42,145.23,267.32z"/>
		</g>
	</g>
</g>
<g>
	<g>
		<line class="st0" x1="272.21" y1="149.68" x2="27.86" y2="149.68"/>
		<g>
			<polygon points="266.3,146.5 265.95,147.44 272.11,149.68 265.95,151.92 266.3,152.86 275.03,149.68 			"/>
		</g>
		<g>
			<polygon points="33.77,146.5 34.11,147.44 27.96,149.68 34.11,151.92 33.77,152.86 25.03,149.68 			"/>
		</g>
	</g>
</g>
<line class="st0" x1="60.75" y1="155.72" x2="60.75" y2="145"/>
<line class="st0" x1="239.32" y1="154.92" x2="239.32" y2="144.21"/>
<g>
	<g>
		<path class="st1" d="M60.95,230.5c1.36-11.55,4.27-24.82,11.15-26.4c7.49-1.72,13.08,11.28,20.64,9.83
			c8.23-1.58,10.61-18.84,17.72-51.75c9.53-44.1,13.96-53.42,17.66-53.4c6.09,0.03,7.73,25.39,17.69,26.53
			c7.8,0.89,12.27-14.04,19.33-13.1c11.09,1.47,11.41,38.32,19.65,38.98c6.43,0.51,14.2-21.36,23.26-46.84
			c8.3-23.35,10.32-33.64,15.4-34.07c3.6-0.3,9.16,4.31,17.43,27.79"/>
		<g>
			<path class="st2" d="M62.87,230.68c-0.14,1.03-1.1,1.74-2.12,1.6s-1.74-1.1-1.6-2.12c0.14-1.03,1.1-1.74,2.12-1.6
				S63.01,229.65,62.87,230.68z"/>
		</g>
		<g>
			<path class="st2" d="M239.04,108.65c0.36,0.97,1.44,1.48,2.41,1.12c0.97-0.36,1.48-1.44,1.12-2.41
				c-0.36-0.97-1.44-1.48-2.41-1.12S238.68,107.67,239.04,108.65z"/>
		</g>
	</g>
</g>
<text transform="matrix(1 0 0 1 58.6816 142.1621)" class="st3 st4">a</text>
<text transform="matrix(1 0 0 1 236.8809 142.1621)" class="st3 st4">b</text>
</svg>
